<svg version="1.2" xmlns="http://www.w3.org/2000/svg" viewBox="0 0 500 500" width="500" height="500">
	<title>logo-removebg-preview_adobe_express-svg</title>
	<style>
		.s0 { fill: #f4f4f4 } 
		.s1 { fill: #f7f7f7 } 
		.s2 { fill: #f5f5f5 } 
		.s3 { fill: #2293c3 } 
		.s4 { fill: #31c488 } 
		.s5 { fill: #1abbb3 } 
		.s6 { fill: #16abc8 } 
		.s7 { fill: #15d9a4 } 
		.s8 { fill: #0fc0cc } 
		.s9 { fill: #15d1b1 } 
		.s10 { fill: #2baea5 } 
		.s11 { fill: #07a4f7 } 
		.s12 { fill: #07acee } 
		.s13 { fill: #09f893 } 
		.s14 { fill: #0bf19a } 
		.s15 { fill: #26d293 } 
		.s16 { fill: #05d1c4 } 
	</style>
	<path id="Layer" class="s0" d="m125.1 335.8c-4.5 0.6-6.6-0.9-7.9-5.1-5.3-17.2-11-34.2-16.5-51.3-0.4-1.3-0.6-2.5-1.2-4.8 5.2 0 9.9-0.3 14.6 0.1 1 0.1 2.1 2.3 2.6 3.7 2.4 8.1 4.7 16.3 7.1 24.5 0.4 1.6 1.1 3.3 2.8 5q2.4-8.6 4.8-17.3 0.7-2.7 1.5-5.3c3.3-11 0.3-8.7 12-9.2 4.1-0.2 5.5 1.4 6.4 5 1.9 8.3 4.3 16.4 6.6 24.6 0.2 0.5 0.6 1 1.4 2.4 0.9-1.8 1.5-2.8 1.8-3.9 2.5-8.7 5-17.3 7.3-26 0.7-2.6 1.9-3.9 4.8-3.8 3.7 0.3 7.5 0.1 11.9 0.1-0.6 2.3-0.8 3.7-1.3 5.1-5.5 17.2-11.4 34.4-16.6 51.8-2.1 6.9-7.1 3.6-11 4.4-3.9 0.7-4.5-2-5.3-5-2.6-9.4-5.3-18.8-9.1-28.2-1.2 4.2-2.5 8.4-3.7 12.6-1.4 4.8-3.2 9.6-4.1 14.5-0.9 5.1-3.4 7.1-8.9 6.1z"/>
	<path id="Layer" fill-rule="evenodd" class="s1" d="m274.5 384.3c-2.9 3.4-5.6 6.5-8.7 10 3.2 6.2 6.7 13.1 10.7 21-6 0-11.2 0.1-16.4-0.2-1.1 0-2.4-1.6-3-2.7-1.7-3.2-3.1-6.6-4.6-10-3-6.6-3-6.6-11.4-5.3 0 5.8 0 11.8 0 18-5.6 0-10.6 0-16.2 0 0-6.8 0-13.3 0-19.7 0-12.8 0.1-25.6 0-38.5 0-3.1 0.7-4.5 4.1-4.4 8.2 0.3 16.3-0.1 24.5 0.2 17.6 0.7 26.7 14.5 21 31.6zm-33.5-13.7c0 3.8 0 7.6 0 12.1 5.1-0.3 9.7 0 13.9-1.1 2.4-0.6 5.3-3.5 5.6-5.8 0.3-2.3-1.6-6.6-3.5-7.2-4.6-1.4-9.7-1.3-14.6-1.6-0.5 0-1 1.7-1.4 3.6z"/>
	<path id="Layer" fill-rule="evenodd" class="s1" d="m317 331.1c-5.1 1.7-9.9 4-14.9 4.4-8.2 0.8-16.6 0.2-24.9 0.3-2.4 0-3.7-0.7-3.7-3.4 0.1-18.6 0.1-37.3 0.2-55.9 0-0.4 0.2-0.9 0.4-1.2 10.5 0 20.9-0.6 31.3 0.2 6.3 0.4 11 4.7 12.8 11.1 1.7 6 0 11.2-5.4 15.3 6.2 3.5 10.2 8.2 10.4 15.3 0.3 5.5-1.6 10.1-6.2 13.9zm-16.2-7.6c4.1-0.5 7.9-1.6 7.5-6.7-0.5-4.8-4.5-5.3-8.2-5.5-3.9-0.1-7.9 0-11.8 0 0 4.4 0 8.1 0 12.3 4.1 0 7.9 0 12.5-0.1zm-5.5-36.1c-2.3 0-4.5 0-7 0 0 3.4 0 6.2 0 9.4 3.8 0 7.3 0.5 10.6-0.2 1.7-0.3 4.2-2.6 4.3-4.1 0.1-1.5-2.1-3.5-3.7-4.8-0.6-0.6-2.2-0.3-4.2-0.3z"/>
	<path id="Layer" fill-rule="evenodd" class="s2" d="m375.6 333.8c-15.9 4.9-30.9-0.5-38.5-13.4-7.4-12.7-5.1-29.7 5.6-39.4 10.2-9.1 22-10.9 34.4-5.7 12.4 5.2 18.7 15.4 18.7 28.7 0 14-6.8 24-20.2 29.8zm4.5-30.2c-1.1-11.1-8.3-17.8-17.7-16.6-9.4 1.3-15.3 10.6-13.4 21 1.4 7.9 8.5 13.7 16.2 13.4 8.3-0.3 14.1-6.9 14.9-17.8z"/>
	<path id="Layer" class="s2" d="m381 401.9c1.5 0 2.5 0 3.5 0 12.5 0 12.5 0 10.9 13.1-15.5 0-31 0-46.9 0-0.1-1-0.3-2-0.3-2.9 0-18.3 0.1-36.7-0.1-55 0-3.9 1.2-5.2 5.2-5.1 12.5 0.2 25 0.2 37.5 0.1 3.6-0.1 5.4 0.7 5.2 4.9-0.4 11.3 1.3 9.3-9.6 9.4-7.1 0.1-14.2 0-21.7 0 0 3.7 0 6.8 0 10.5 5.3 0 10.4 0.2 15.5-0.1 3.6-0.1 4.6 1.3 4.5 4.7-0.3 11.7 1.6 9.5-9.7 9.7-3.3 0.1-6.6 0-10.3 0 0 3.6 0 6.9 0 10.7 5.3 0 10.5 0 16.3 0z"/>
	<path id="Layer" class="s2" d="m184 352.1c9.3 0 18.2 0.1 27 0 3.1-0.1 4.1 1 4 4-0.2 12.7 1.4 10.1-9.7 10.3-6.8 0.2-13.7 0.1-20.5 0.2-0.3 0-0.6 0.2-1.1 0.5 0 3 0 6 0 9.8 5.3 0 10.5 0.2 15.8 0 3.2-0.2 4.6 0.8 4.4 4.2-0.3 3.1-0.1 6.2-0.1 10-6.9 0-13.3 0-20.1 0 0 3.8 0 7 0 10.8 8.2 0 16.3 0 24.4 0 6.8 0 6.8 0 6.8 6.8-0.1 2 0 4 0 6.3-16 0-31.5 0-47.6 0 0-5.1 0-10.1 0-15 0-14.2 0.1-28.4-0.1-42.5 0-4 1-5.9 5.3-5.5 3.7 0.4 7.3 0.1 11.5 0.1z"/>
	<path id="Layer" class="s0" d="m331.3 382.7c10.2 9.5 8.8 24.4-2.6 31.1-0.7 0.4-1.5 1.1-2.2 1.1-12.4 0-25.3 3.4-36.6-5.3-2.8-2.2-3.8-4.1-2.4-7.5 1.3-3 2-6.2 3.3-10.3 2.4 2 4.1 3.4 5.9 4.8 5 4.1 10.7 7 17.3 6.3 2.5-0.3 4.7-2.4 7-3.6-1.7-2.2-2.9-5.3-5.1-6.5-3.6-2-7.8-2.7-11.7-4.1-10.4-3.7-14.8-9.9-14.1-19.2 0.7-9 7-15.6 17-17.6 9.9-1.9 19.2 0 27.8 5.1 1.3 0.7 2.3 3.4 2 5-0.4 3.4-1.8 6.6-3 10.8-2.9-1.8-5.1-3.6-7.7-4.4-4.3-1.5-8.8-2.8-13.3-3.1-1.6-0.1-4.4 2.5-4.9 4.4-0.3 1.3 1.9 4.2 3.6 5 5.8 2.6 11.8 4.5 17.7 6.7 0.6 0.2 1.2 0.7 2 1.3z"/>
	<path id="Layer" class="s1" d="m215 311.4c-2.1 0-3.8 0-5.8 0 0 3.4 0 6.5 0 10.3 9.8 0 19.6 0 29.5 0 0 4.8 0 8.9 0 13.3-14.9 0-29.5 0-44.7 0-0.1-1.3-0.3-2.7-0.3-4.1-0.1-17.2 0.1-34.4-0.1-51.5-0.1-4.2 1.3-5.5 5.4-5.4 11.6 0.2 23.3 0.2 35 0 3.8-0.1 5.3 0.8 5.1 5-0.4 10.3 1.1 8.7-8.7 8.8-7 0.1-13.9 0-21.2 0 0 3.4 0 6.3 0 9.9 5.2 0 10.3 0.1 15.4 0 2.8-0.1 3.8 0.8 3.9 3.7 0.4 10 0.5 10-9.5 10-1.2 0-2.4 0-4 0z"/>
	<path id="Layer" class="s2" d="m103.5 365.8c-1.4-4.3-2.7-8.2-4.3-13.2 5.7 0 10.6-0.2 15.5 0.2 1.1 0.1 2.4 2.4 2.9 4 3.2 10.3 6.3 20.6 9.5 31 0.3 1.2 0.9 2.3 1.8 4.7 2.6-8.4 4.8-15.6 7.1-22.8 1.4-4.7 2.7-9.3 4.3-13.8 0.5-1.3 1.9-3.1 3-3.1 4.4-0.4 8.9-0.2 13.8-0.2-0.3 1.7-0.3 2.9-0.6 3.9-6.2 18.3-12.4 36.5-18.5 54.8-1 3.1-2.3 4.1-5.6 4.1-12.4 0-12.4 0.1-16.3-11.9-4.2-12.4-8.3-24.9-12.6-37.7z"/>
	<path id="Layer" class="s1" d="m264 280.2c0 17.3-0.1 34.2 0.1 51 0 3.4-0.9 4.6-4.5 4.6-11 0.1-11 0.2-10.9-10.6q0-22.5 0-44.9c0-1.7 0-3.3 0-5.4 5.1 0 9.8 0 15 0 0.1 1.7 0.2 3.3 0.3 5.3z"/>
	<path id="Layer" class="s3" d="m296.6 64.8q12.1 1.3 24.2 2.6c3.2 0.4 4.7 2.4 4.9 5.4 0.5 14.9 2.2 30 1.3 44.8-2 32.3-12.5 61.8-32.6 87.5-0.9 1.2-1.9 2.3-3.3 3.2 0.6-2.2 1.7-4.2 2.8-6.2 0.7-1.4 1.4-2.7 2.3-4.3 8.4-9.4 13.3-20.6 18.1-31.6 2-4.7 2.5-10.1 4.1-15.3 1.4-3.7 2.8-7.2 3.4-10.8 0.9-5.5 0.3-11.3 1.7-16.6 4.3-15.1 2.6-30.2 0-45-2.1-11.7-0.4-9.2-11.5-9.5-1.7-0.1-3.4-0.1-5.4-0.1-1.1 0-1.8 0-2.7-0.3-1.2-0.4-2-0.5-3.3-0.7-2.8-1-5.2-2-7.2-2.9 1.4-0.1 2.3-0.1 3.2-0.2z"/>
	<path id="Layer" class="s4" d="m196.8 195.2c-9-11.5-14.3-24.7-18.7-38.4-8.4-26.6-9.8-53.9-6.5-81.5 0.8-6.7 1.4-7.6 8.3-8 18.7-1.1 36-6.2 52.5-15-1.9 1.8-4.2 3.3-6.4 5 0 0.8 0 1.2-0.1 1.6 0 0 0 0.1-0.4 0-7.1 2.4-13.9 4.7-21 7.1-5.1 1-9.8 1.9-15 2.9-3.3 0-6.1 0.2-8.9 0-3.2-0.2-5.6 0.4-6.2 4.1-0.7 4.7-2.2 9.4-2.3 14-0.1 9 1 17.9 0.7 26.8-0.4 12.1 2.2 23.6 5.2 35.5 0.3 0.8 0.6 1.2 1 2.1 1.3 4.5 2.6 8.6 4 13.1 4.7 9.7 9.3 19.1 14 28.9-0.1 0.8-0.2 1.3-0.2 1.8z"/>
	<path id="Layer" class="s5" d="m267.5 230.9c-4.9 3.4-9.5 7.4-14.8 10-2.4 1.2-6.5 0.3-9.3-0.8-3.5-1.4-6.4-4.1-9.4-6.6 2.2-3 5.2-5 4.7-8.7 1.9 1 3.6 1.8 5 3 3.3 2.8 6.4 3.2 10.1 0.2 4.7-3.9 9.8-7.3 14.9-10.9 0.2 0 0.5 0.1 0.4 0.5-5 4.8-10 9.2-14.8 13.8-0.9 0.8-1.4 2.2-2.1 3.3 1.4 0.2 3 0.9 4.2 0.5 3.8-1.2 7.4-2.8 11.1-4.3z"/>
	<path id="Layer" fill-rule="evenodd" class="s6" d="m296 198.1q-1 2-2.1 4c-1.1 2-2.2 4-3.1 6.3-4 4.5-8.1 8.8-12.5 12.7-2.8-2-5.2-3.8-7.5-5.9 5.1-5.7 10.2-11.1 15.2-16.5-0.1 0 0 0 0.1-0.2 0-0.2 0.4-0.3 0.7-0.4 3.9-0.3 3.7-2.9 3.9-5.3 0 0.2 0-0.1 0.4 0 0.8 0.1 1.3 0.1 1.9 0.6 1 1.8 2 3.2 3 4.7z"/>
	<path id="Layer" class="s7" d="m196.8 195.2c0-0.5 0.1-1 0.5-1.9 2.2-1 4-1.7 6-2.2 0.4 0.3 0.6 0.5 0.5 1.1 0.6 1.1 1.4 1.9 2.6 2.9 1.9 2.2 3.5 4.4 5.3 6.3 3.7 3.7 7.5 7.3 11.3 11.2-1.3 2.7-2.6 5.1-4.2 7.1-0.8-0.3-1.4-0.4-2.1-0.4 0 0 0.3-0.3 0.2-0.5-1.1-1.1-2.2-1.9-3.3-2.6-0.3 0-0.5-0.2-0.7-0.9-0.8-1.2-1.7-1.8-2.5-2.4-0.7-0.7-1.5-1.5-2.3-2.9-2.3-3.1-4.5-5.6-6.7-8.1 0 0-0.3-0.3-0.4-0.9-1.4-2.4-2.8-4.1-4.2-5.9 0 0 0 0 0 0.1z"/>
	<path id="Layer" class="s8" d="m270.7 215.5c2.4 1.8 4.8 3.6 7.2 5.7-1.1 1.5-2.2 2.6-4 3.9-2.4 1.9-4.2 3.7-6 5.5 0 0-0.1 0.3-0.3 0.3-3.8 1.5-7.4 3.1-11.2 4.3-1.2 0.4-2.8-0.3-4.2-0.5 0.7-1.1 1.2-2.5 2.1-3.3 4.8-4.6 9.8-9 15.1-13.9 0.7-0.9 1-1.4 1.4-1.9-0.1 0-0.1-0.1-0.1-0.1z"/>
	<path id="Layer" class="s9" d="m219.1 220c1.3-2.3 2.6-4.7 4-7.4 0.1-0.4 0.4-0.5 0.7-0.3 0.9 0.8 1.5 1.5 2.2 2.4 0.5 0.6 1 1 1.8 1.6 1.3 1.4 2.5 2.4 3.7 3.5 0.1 0.1 0.3 0.2 0.3 0.2 0 0 0.3 0 0.2 0 0 0 0-0.1 0.1 0.3 1 0.8 2 1.2 2.9 1.7 0 0 0 0 0.1 0.3 1 1 2.1 1.7 3.2 2.3 0 0 0.1 0 0.1 0 0.8 3.9-2.2 5.9-4.5 8.6-0.4 0.1-0.7 0-0.9-0.4-0.9-0.9-1.8-1.4-2.6-1.9-1-0.6-2-1.2-3.2-2.4-0.5-0.8-0.7-1.2-1.2-1.7-0.8-0.5-1.5-0.7-2.1-1-0.9-0.7-1.7-1.3-2.8-2.3-0.3-0.4-0.4-0.5-0.4-0.5 0 0-0.3-0.2-0.5-0.6-0.6-0.7-1-1-1.4-1.3 0 0 0.2 0 0.2-0.2 0-0.5 0-0.7 0.1-0.9z"/>
	<path id="Layer" class="s9" d="m226 57c2.2-1.4 4.5-2.9 6.8-4.7 0.1-0.3 0.2-0.4 0.4-0.4 0.5-0.1 0.7-0.3 0.7-0.6 1-0.7 2-1.3 3.3-2.1 0.4-0.1 0.6-0.3 0.6-0.3 0.4-0.3 0.7-0.6 1.6-1 1-0.4 1.4-0.8 1.8-1.2 0.3-0.4 0.6-0.7 1.2-1.2 0.4-0.1 0.5-0.1 0.5 0.3-0.7 2-1.1 4.1-2.3 5.1-3.4 2.5-3.5 3.4 0.5 6.5 0.1 0.5 0.2 0.7 0.3 0.9 0-0.1-0.1 0-0.3 0-0.6 0.3-0.9 0.7-1.4 1.4-5.3 2.7-10.3 5.2-15.4 7.3 2.1-2.6 2.6-5.2 1.6-8 0 0 0-0.1 0.4-0.1 1-0.3 1.6-0.6 2.2-1q-1.3-0.4-2.5-0.9z"/>
	<path id="Layer" class="s10" d="m296.3 64.5c-0.6 0.4-1.5 0.4-3.1 0.2-2.3-0.4-3.7-0.5-5.5-1-5.3-2.1-10.4-3.9-15.4-6-4.8-2.1-9.5-4.6-14.3-7.2-2.4-2.7-4.8-5-7-7.5 0.1-0.1 0.4-0.4 0.4-0.4 6.1 3.9 11.9 8.4 18.4 11.5 8.5 4 17.5 6.8 26.5 10.4z"/>
	<path id="Layer" class="s4" d="m201.5 202.2q3.2 3.3 6.4 7.5-3.1-3.2-6.4-7.5z"/>
	<path id="Layer" class="s10" d="m242.9 45.4c0 0-0.1 0-0.1 0 2.1-2.5 4.3-5 8.4-3 0.2 0.2-0.1 0.5-0.6 0.6-2.9 0.8-5.3 1.6-7.7 2.4z"/>
	<path id="Layer" class="s5" d="m268.2 230.5q2.2-2.5 5.4-5.4-2.3 2.6-5.4 5.4z"/>
	<path id="Layer" class="s4" d="m196.8 195.5c1.4 1.4 2.8 3.1 4.2 5.3-1.4-1.5-2.8-3.2-4.2-5.3z"/>
	<path id="Layer" class="s4" d="m213.7 216.5c1 0.4 2.1 1.2 3.1 2.4-1-0.5-2-1.3-3.1-2.4z"/>
	<path id="Layer" class="s4" d="m223.9 226.1c0.6 0 1.3 0.2 2.1 0.8 0.1 0.4 0.1 0.8 0.1 0.8-0.7-0.5-1.5-0.9-2.2-1.6z"/>
	<path id="Layer" class="s5" d="m230.5 231.2c0.7 0.2 1.6 0.7 2.5 1.4-0.8-0.1-1.6-0.6-2.5-1.4z"/>
	<path id="Layer" class="s4" d="m210.5 213.2c0.7 0.3 1.6 0.9 2.4 1.9-0.8-0.3-1.6-1-2.4-1.9z"/>
	<path id="Layer" class="s4" d="m218.8 219.7c0.2 0.5 0.2 0.7 0.1 1.2-0.7-0.2-1.4-0.6-2.1-1.4 0.6-0.2 1.2-0.1 2 0.2z"/>
	<path id="Layer" class="s5" d="m226.2 227.9c-0.1-0.2-0.1-0.6 0-0.7 0.3 0.1 0.5 0.5 0.9 1q-0.5 0.5-0.9-0.3z"/>
	<path id="Layer" class="s4" d="m218.8 221.4q0.6 0 1.3 0.8-0.5 0-1.3-0.8z"/>
	<path id="Layer" class="s10" d="m240.9 46.7q-0.1 0.6-1.1 1.2 0.1-0.6 1.1-1.2z"/>
	<path id="Layer" class="s4" d="m220.6 223.1c0.1-0.1 0.2 0 0.3 0 0 0-0.2 0.3-0.2 0.3 0 0-0.1-0.2-0.1-0.3z"/>
	<path id="Layer" class="s4" d="m233.7 51.3q0.3 0.4-0.5 0.6-0.3-0.5 0.5-0.6z"/>
	<path id="Layer" class="s10" d="m237.8 48.8c0 0.1-0.2 0.3-0.3 0.3 0 0-0.1-0.3-0.1-0.3 0 0 0.3-0.1 0.4 0z"/>
	<path id="Layer" class="s11" d="m307 68.9c1.6 0 3.3 0 5 0.1 11.1 0.3 9.4-2.2 11.5 9.5 2.6 14.8 4.3 29.9 0 45-1.4 5.3-0.8 11.1-1.7 16.6-0.6 3.6-2 7.1-3.6 10.5-1.7-1.6-3-3.2-4.2-5.1 5-21.3 4.8-42.6 3.8-63.8-0.1-3.4-1.5-6-5.8-5.9-2 0-4-1.1-5.9-2.1 0.4-1.8 0.6-3.3 0.9-4.8z"/>
	<path id="Layer" class="s12" d="m314 145.9c1.2 1.5 2.5 3.1 3.9 4.9-1.1 5.3-1.6 10.7-3.6 15.4-4.8 11-9.7 22.2-18.1 31.6-1.2-1.2-2.2-2.6-3-4.7 1.1-2 1.9-3.4 2.6-4.9 4.5-9.6 9-19.3 13.3-29 1.9-4.3 3.3-8.9 4.9-13.3z"/>
	<path id="Layer" class="s12" d="m306.6 68.9c0.1 1.5-0.1 3-0.9 4.8-3.1 0.1-5.5 0-8-0.6-6.2-1.3-12.4-2.9-18.7-4.7-1.6-4.5 1.5-4.1 3.9-4.2 1.7-0.1 3.4-0.1 5.1-0.2 1.5 0.2 2.9 0.3 4.7 0.8 2.7 1.1 5.1 2.1 8 3.4 1.4 0.5 2.4 0.6 3.4 0.6 0.7 0.1 1.4 0.1 2.5 0.1z"/>
	<path id="Layer" class="s11" d="m303.9 68.6c-0.8 0.2-1.8 0.1-2.9-0.3 0.9-0.2 1.7-0.1 2.9 0.3z"/>
	<path id="Layer" class="s13" d="m178 149c-3-11.6-5.6-23.1-5.2-35.2 0.3-8.9-0.8-17.8-0.7-26.8 0.1-4.6 1.6-9.3 2.3-14 0.6-3.7 3-4.3 6.2-4.1 2.8 0.2 5.6 0 8.9 0.4 0.2 1.8-0.2 3.3-0.9 4.8-5.4 0.9-9.7 2.5-9.6 8.9 0.1 9 0 18.1 0 27.2-0.1 15.6 3.3 30.7 6.7 46.1-1.1 2.7-1.9 5.3-2.8 7.8-1.3-4.1-2.6-8.2-3.6-12.7 0.5-0.9 0.8-1.4 1.1-1.9q-1.2-0.2-2.4-0.5z"/>
	<path id="Layer" class="s14" d="m183 164.5c0.8-2.9 1.6-5.5 3-8 2.7 5.8 4.8 11.6 7.1 18 4.4 4.1 6.7 10.6 10 16.5-1.8 0.6-3.6 1.3-5.8 2-5-9.4-9.6-18.8-14.3-28.5z"/>
	<path id="Layer" class="s7" d="m225.5 58.9c1.4 2.9 0.9 5.5-1.2 8.1 0 0.3 0 0.3-0.4 0.2-5.3 1.2-10.1 2.5-14.9 3.4-1.4-1.8-2.8-3.2-4.1-4.7 6.7-2.3 13.5-4.6 20.6-7z"/>
	<path id="Layer" class="s14" d="m204.5 66c1.7 1.4 3.1 2.8 4.1 4.6-6.5 3.2-13 3.9-19.6 3.4 0.3-1.4 0.7-2.9 1-4.7 4.7-1.4 9.4-2.3 14.5-3.3z"/>
	<path id="Layer" class="s14" d="m178 149.3c0.8-0.1 1.6 0 2.4 0.2-0.3 0.5-0.6 1-1.1 1.5-0.7-0.5-1-0.9-1.3-1.7z"/>
	<path id="Layer" class="s7" d="m226 57.3c0.8 0 1.7 0.3 2.5 0.6-0.6 0.4-1.2 0.7-2.2 1-0.3-0.4-0.3-0.8-0.3-1.6z"/>
	<path id="Layer" class="s6" d="m268.7 217.1c0.4-0.5 0.9-1 1.8-1.5-0.1 0.5-0.4 1-1.1 1.5-0.2 0.1-0.5 0-0.7 0z"/>
	<path id="Layer" class="s3" d="m291.1 192.8c4.2-8.9 9.5-17.4 13.4-26.5 11.2-26.7 13.7-54.7 11.5-83.3-0.3-4.1-2.4-4.9-6.1-5.6-10.2-2-20.3-4.6-30.7-7.6-0.2-0.7-0.2-0.9-0.1-1.1 6.2 1.5 12.4 3.1 18.6 4.4 2.5 0.6 4.9 0.7 7.8 1 2.5 0.6 4.5 1.7 6.5 1.7 4.3-0.1 5.7 2.5 5.8 5.9 1 21.2 1.2 42.5-3.8 63.8-1.6 4.8-3 9.4-4.9 13.7-4.3 9.7-8.8 19.4-13.3 29-0.7 1.5-1.5 2.9-2.6 4.6-0.8 0.1-1.3 0.1-2.1 0z"/>
	<path id="Layer" class="s3" d="m286.8 198.1c0.9-1.7 2.1-3.4 3.6-5.3 0.1 2.4 0.3 5-3.6 5.3z"/>
	<path id="Layer" class="s3" d="m286 198.7c0-0.1-0.1-0.1-0.1-0.1 0.1 0.1 0 0.1 0.1 0.1z"/>
	<path id="Layer" class="s8" d="m279.5 217.5c0-0.1-0.1 0 0 0z"/>
	<path id="Layer" class="s15" d="m223.9 67.2c-9.3 3.2-19 6.4-28.8 9.4-1.5 0.5-3.3 0.5-4.9 0.7-9.5 0.8-8.1-0.5-8.8 8.8-2.3 30.8 1.7 60.7 15.4 88.8 6.7 13.7 15.7 25.8 26.6 36.9 0.1 0.3-0.2 0.4-0.3 0.4-3.9-3.5-7.7-7.1-11.4-10.8-1.8-1.9-3.4-4.1-5.4-6.6-1-1.3-1.6-2.1-2.3-2.8-0.1-0.4-0.3-0.6-0.7-0.9-3.5-6-5.8-12.5-10.2-16.6-2.3-6.4-4.4-12.2-6.8-18.3-4-15.3-7.4-30.4-7.3-46 0-9.1 0.1-18.2 0-27.2-0.1-6.4 4.2-8 9.6-8.9 7 0.4 13.5-0.3 20-3.1 5.2-1.3 10-2.6 15.3-3.8z"/>
	<path id="Layer" class="s14" d="m203.8 192.2c0.9 0.5 1.5 1.3 2.2 2.5-0.8-0.6-1.6-1.4-2.2-2.5z"/>
	<path id="Layer" class="s5" d="m235.1 222.3c0.9 0.4 1.9 1.1 3 2.1-0.9-0.4-2-1.1-3-2.1z"/>
	<path id="Layer" class="s5" d="m232.1 220.3c0.8 0.1 1.7 0.6 2.8 1.4-0.8-0.2-1.8-0.6-2.8-1.4z"/>
	<path id="Layer" class="s15" d="m226 214.7q0.7 0.2 1.5 1.1-0.7-0.2-1.5-1.1z"/>
	<path id="Layer" class="s5" d="m231.5 219.8c-0.2-0.3-0.2-0.5-0.2-0.7 0.2 0.2 0.4 0.3 0.7 0.7 0.1 0.2-0.2 0.2-0.2 0.2 0 0-0.2-0.1-0.3-0.2z"/>
	<path id="Layer" class="s5" d="m242.9 45.8c2.4-1.2 4.8-2 7.6-2.7 2.7 2.4 5.1 4.7 7.2 7.6-1.4 1.5-2.7 2.4-4.3 3.3-5.4-3.1-8.6 1.2-12.4 3-3.9-2.7-3.8-3.6-0.4-6.1 1.2-1 1.6-3.1 2.3-5.1z"/>
	<path id="Layer" class="s10" d="m241.1 57.4c3.7-2.2 6.9-6.5 12.5-3.1 3.4 2.1 6.1 3.9 8.8 5.7 3.6 2.3 7.1 4.7 10.4 7-0.5 0-0.8 0-1.1 0-5.3-2.8-11-4.9-15.6-8.4-5.1-3.8-9.2-5-14.4-0.3-0.4-0.2-0.5-0.4-0.6-0.9z"/>
	<path id="Layer" class="s10" d="m241.1 58.3q-0.1 0.6-0.9 1.1 0-0.6 0.9-1.1z"/>
	<path id="Layer" class="s8" d="m273.1 67q-5.4-3.5-10.7-7c-2.7-1.8-5.4-3.6-8.4-5.6 1-1.3 2.3-2.2 3.8-3.4 5 2.1 9.7 4.6 14.5 6.7 5 2.1 10.1 3.9 15.4 6-1.4 0.4-3.1 0.4-4.8 0.5-2.4 0.1-5.5-0.3-3.9 4.2 0 0.5 0 0.7 0 1.1-0.5 0.2-1.1 0.1-2-0.3-0.3-0.2-0.5-0.2-0.5-0.2-1-0.4-1.9-0.8-3.1-1.5-0.3-0.3-0.3-0.5-0.3-0.5z"/>
	<path id="Layer" class="s10" d="m240.8 141.2c-5.8 0-11.5 0-19 0 12.1-20 23.3-38.5 34.5-57q0.8 0.3 1.5 0.5c-0.8 9.2-1.5 18.4-2.4 27.6-1.5 13.4-1.6 13.4 11.8 13.7 1.4 0 2.9 0.2 5.6 0.4-11.6 19.4-22.9 38-34.1 56.7q-0.7-0.2-1.4-0.4c1.2-13.6 2.4-27.1 3.9-41.1 0.4 6.8 0.4 14 0.1 21.2-0.1 3.9-1 7.8-1.5 11.6q0.8 0.2 1.5 0.3c4.6-8.2 9.2-16.4 14.1-24.8 4.5-6.7 8.6-13.2 13.6-21-6.2 0-11 0-16.1-0.3-0.7-2-1.9-3.7-1.7-5.3 0.6-5.8 1.8-11.6 2.6-17.4 0.6-4.1 0.9-8.2 1.3-12.3q-0.7-0.2-1.5-0.4c-0.7 1-1.5 1.9-2.2 2.9-5.5 9.6-11 19.2-16.8 29-3.1 4.4-6 8.6-9.5 13.9 3 0 4.5 0 6.4 0 2.8 0 5.1 0 7.7 0 0.5 0 0.6 0 1 0.2 0.4 0.8 0.5 1.4 0.6 2z"/>
	<path id="Layer" class="s3" d="m272.8 67c0.3 0 0.3 0.2 0.3 0.3-0.4 0-0.8 0-1.3-0.2 0.2-0.1 0.5-0.1 1-0.1z"/>
	<path id="Layer" class="s3" d="m276.4 69.1c0.1-0.1 0.3-0.1 0.3-0.1 0 0 0 0.3 0 0.3 0 0-0.3-0.1-0.3-0.2z"/>
	<path id="Layer" class="s16" d="m234.9 124.9q8.3-14.4 16.5-28.8c0.7-1 1.5-1.9 2.2-2.9q0.8 0.2 1.5 0.4c-0.4 4.1-0.7 8.2-1.3 12.3-0.8 5.8-2 11.6-2.6 17.4-0.2 1.6 1 3.3 1.5 5.6-0.6 4.5-3.9 8.8 2.1 11.2-3.3 6.4-3.3 6.4 0.3 9.9q-6.9 12.4-13.8 24.7-0.7-0.1-1.5-0.3c0.5-3.8 1.4-7.7 1.5-11.6 0.3-7.2 0.3-14.4-0.1-21.6-0.4 0-0.2-0.2-0.3-0.1-0.2-0.5-0.3-1.1-0.7-2.1-0.7-0.2-0.9-0.1-1.2 0-2.4 0-4.7 0-7.5-0.4 0.1-2.2 0.8-4 1.3-5.9 0.8-2.6 1.4-5.2 2.1-7.8z"/>
	<path id="Layer" class="s8" d="m255.4 149.9c-3.9-3.4-3.9-3.4-0.6-9.8-6-2.4-2.7-6.7-1.9-10.9 5.1-0.3 9.9-0.3 16.1-0.3-5 7.8-9.1 14.3-13.6 21z"/>
	<path id="Layer" class="s9" d="m234.6 125.1c-0.4 2.4-1 5-1.8 7.6-0.5 1.9-1.2 3.7-1.8 5.9-1.4 0.4-2.9 0.4-5.9 0.4 3.5-5.3 6.4-9.5 9.5-13.9z"/>
	<path id="Layer" class="s9" d="m239.2 139c0.1-0.1 0.3-0.2 0.7-0.2-0.1 0.2-0.2 0.2-0.7 0.2z"/>
</svg>